<?xml version="1.0" encoding="utf-8"?>
<!-- Generator: Adobe Illustrator 16.0.0, SVG Export Plug-In . SVG Version: 6.00 Build 0)  -->
<!DOCTYPE svg PUBLIC "-//W3C//DTD SVG 1.1 Tiny//EN" "http://www.w3.org/Graphics/SVG/1.1/DTD/svg11-tiny.dtd">
<svg version="1.1" baseProfile="tiny" id="Layer_1" xmlns="http://www.w3.org/2000/svg" xmlns:xlink="http://www.w3.org/1999/xlink"
	 x="0px" y="0px" width="415.773px" height="175.342px" viewBox="0 0 415.773 175.342" xml:space="preserve">
<g>
	<path fill="#555555" d="M27.735,162.195c0,7.597-5.665,13.147-13.87,13.147C5.666,175.342,0,169.792,0,162.195V15.556
		C0,7.958,5.666,2.414,13.865,2.414c6.634,0,11.577,3.739,13.389,9.404C36.537,3.979,47.752,0,61.02,0
		c17.724,0,31.835,5.912,42.087,17.85c10.247,11.938,15.436,27.374,15.436,46.307c0,18.934-5.189,34.369-15.436,46.307
		c-10.252,11.938-24.363,17.85-42.087,17.85c-13.388,0-24.483-3.739-33.285-11.095V162.195z M27.735,64.156
		c0,12.541,2.775,22.311,8.32,29.186c5.671,6.87,13.389,10.367,23.274,10.367c9.891,0,17.488-3.377,22.912-10.247
		c5.43-6.875,8.2-16.645,8.2-29.306s-2.77-22.431-8.2-29.306c-5.424-6.87-13.021-10.247-22.912-10.247
		c-9.886,0-17.604,3.498-23.274,10.367C30.51,41.846,27.735,51.616,27.735,64.156z"/>
	<path fill="#555555" d="M160.975,115.286l-24.478-96.593c-0.367-1.565-0.487-2.896-0.487-3.738c0-3.739,1.45-6.754,4.226-9.042
		c2.77-2.293,6.026-3.498,9.645-3.498c6.875,0,11.215,3.498,12.781,10.373l15.315,63.429l15.556-41.726
		c2.293-6.628,6.754-9.885,13.388-9.885c6.634,0,10.975,3.257,13.263,9.885l15.556,41.726l15.315-63.429
		c1.571-6.875,5.911-10.373,12.906-10.373c3.618,0,6.87,1.205,9.645,3.498c2.775,2.288,4.22,5.304,4.22,9.042
		c0,0.843-0.121,2.052-0.482,3.738l-24.478,96.593c-1.812,7.116-6.273,10.613-13.389,10.613c-6.267,0-10.487-2.896-12.781-8.681
		L206.92,64.156l-19.776,53.062c-2.293,5.786-6.513,8.681-12.786,8.681C167.248,125.899,162.781,122.401,160.975,115.286z"/>
	<path fill="#555555" d="M307.844,15.556c0-7.598,5.55-13.143,13.75-13.143c8.32,0,13.87,5.425,13.87,13.143v1.932
		c3.251-4.943,8.079-9.042,14.467-12.42C356.324,1.691,363.439,0,371.277,0c13.865,0,24.72,3.738,32.558,11.336
		c7.959,7.597,11.938,18.452,11.938,32.562v68.858c0,7.597-5.666,13.142-13.865,13.142s-13.87-5.424-13.87-13.142v-65.12
		c0-15.315-7.115-22.913-21.222-23.033c-8.807,0-16.163,3.738-22.31,11.215c-6.032,7.356-9.042,16.881-9.042,28.578v48.359
		c0,7.597-5.55,13.142-13.87,13.142c-8.2,0-13.75-5.545-13.75-13.142V15.556z"/>
</g>
</svg>
